<svg xmlns="http://www.w3.org/2000/svg" viewBox="0 0 164 164">
    <path fill="#AAAAAA" d="M79.92,40.58A10.81,10.81,0,1,1,69.11,29.77,10.81,10.81,0,0,1,79.92,40.58ZM69.11,59.93A11.24,11.24,0,1,0,80.35,71.17,11.24,11.24,0,0,0,69.11,59.93Zm0,30.17a11.68,11.68,0,1,0,11.68,11.68A11.68,11.68,0,0,0,69.11,90.09Zm0,31a11.24,11.24,0,1,0,11.24,11.24A11.24,11.24,0,0,0,69.11,121.12Zm0,31A10.81,10.81,0,1,0,79.92,163,10.81,10.81,0,0,0,69.11,152.15ZM98.88,58.49a12.68,12.68,0,1,0,12.68,12.68A12.68,12.68,0,0,0,98.88,58.49Zm0,30.17A13.12,13.12,0,1,0,112,101.77,13.12,13.12,0,0,0,98.88,88.65Zm0,31a12.68,12.68,0,1,0,12.68,12.68A12.68,12.68,0,0,0,98.88,119.68Zm30.56-32.47A14.56,14.56,0,1,0,144,101.77,14.56,14.56,0,0,0,129.44,87.21ZM39,61.37a9.8,9.8,0,1,0,9.8,9.8A9.8,9.8,0,0,0,39,61.37Zm0,30.17a10.23,10.23,0,1,0,10.23,10.23A10.23,10.23,0,0,0,39,91.53Zm0,31a9.8,9.8,0,1,0,9.8,9.8A9.8,9.8,0,0,0,39,122.56ZM8.79,93a8.79,8.79,0,1,0,8.79,8.79A8.79,8.79,0,0,0,8.79,93Z"
          transform="translate(0 -21.07)"/>
</svg>
